<svg
                width="50px"
                height="50px"
                viewBox="0 0 100 100"
                version="1.1"
                xmlns="http://www.w3.org/2000/svg"
                xmlSpace="preserve"
              >
                <path
                  fill="rgb(7 89 133)"
                  d="M50,0C22.387,0 0,22.386 0,50C0,77.614 22.387,100 50,100C77.614,100 100,77.614 100,50C100,22.386 77.614,0 50,0ZM50,19.913C56.011,25.128 59.64,36.086 57.219,42.079C56.128,44.777 53.95,46.063 50.749,45.956L50.749,41.53L54.736,39.215C55.093,39.007 55.215,38.548 55.007,38.19C54.8,37.833 54.343,37.711 53.982,37.919L50.749,39.797L50.749,30.199C50.749,29.785 50.413,29.449 49.999,29.449C49.585,29.449 49.249,29.785 49.249,30.199L49.249,35.071L46.96,32.944C46.657,32.662 46.182,32.679 45.9,32.983C45.618,33.287 45.635,33.761 45.939,34.043L49.249,37.117L49.249,45.957C46.058,46.066 43.871,44.779 42.781,42.081C40.359,36.087 43.989,25.128 50,19.913ZM52.979,57.077C55.296,57.077 57.182,58.963 57.182,61.28L57.182,69.739L42.816,69.739L42.816,61.28C42.816,58.963 44.702,57.077 47.02,57.077L52.979,57.077ZM49.25,55.577L49.25,47.463C49.497,47.456 49.743,47.449 49.999,47.427L50,47.427C50.255,47.449 50.502,47.456 50.75,47.463L50.75,55.577L49.25,55.577ZM45.216,79.337C45.216,79.751 44.88,80.087 44.466,80.087C44.052,80.087 43.716,79.751 43.716,79.337L43.716,75.558L45.216,75.558L45.216,79.337ZM56.283,79.337C56.283,79.751 55.947,80.087 55.533,80.087C55.119,80.087 54.783,79.751 54.783,79.337L54.783,75.558L56.283,75.558L56.283,79.337ZM58.537,74.058L41.463,74.058L41.463,71.24L58.537,71.24L58.537,74.058Z"
                />
              </svg>